<svg xmlns="http://www.w3.org/2000/svg" width="24" height="24" viewBox="0 0 24 24" fill="none" stroke="currentColor" stroke-width="1.5" stroke-linecap="round" stroke-linejoin="round">
  <rect x="2" y="2" width="20" height="20" rx="5" ry="5" fill="#4A5568"/>
  <path d="M15 7h3a2 2 0 0 1 2 2v10a2 2 0 0 1-2 2H6a2 2 0 0 1-2-2V9a2 2 0 0 1 2-2h3" stroke="#E2E8F0"/>
  <path d="M12 2v7M9 5l3-3 3 3" stroke="#E2E8F0"/>
  <path d="M8 14h.01M12 14h.01M16 14h.01M8 18h.01M12 18h.01M16 18h.01" stroke="#E2E8F0" stroke-width="2"/>
</svg>

